<?xml version="1.0" encoding="utf-8"?>
<!-- Generator: Adobe Illustrator 15.0.2, SVG Export Plug-In . SVG Version: 6.00 Build 0)  -->
<!DOCTYPE svg PUBLIC "-//W3C//DTD SVG 1.1//EN" "http://www.w3.org/Graphics/SVG/1.1/DTD/svg11.dtd">
<svg version="1.1" id="Layer_1" xmlns="http://www.w3.org/2000/svg" xmlns:xlink="http://www.w3.org/1999/xlink" x="0px" y="0px"
	 width="1024px" height="1024px" viewBox="0 0 1024 1024" enable-background="new 0 0 1024 1024" xml:space="preserve">
<g>
	<rect x="460.8" y="204.8" width="102.4" height="153.6"/>
	<rect x="614.4" y="204.8" width="102.399" height="153.6"/>
	<rect x="460.8" y="460.8" width="102.4" height="153.601"/>
	<rect x="614.4" y="460.8" width="102.399" height="153.601"/>
	<path d="M819.2,0H204.8C92.2,0,0,92.2,0,204.8v614.4C0,931.8,92.2,1024,204.8,1024h614.4c112.6,0,204.8-92.2,204.8-204.8V204.8
		C1024,92.2,931.8,0,819.2,0z M768,896H563.2V742.4H460.8V896H256V128h512V896z"/>
	<rect x="307.2" y="204.8" width="102.399" height="153.6"/>
	<rect x="307.2" y="460.8" width="102.399" height="153.601"/>
</g>
</svg>
